<svg width="15" height="4" viewBox="0 0 15 4" fill="none" xmlns="http://www.w3.org/2000/svg">
<path d="M6.17201 1.97271C6.17201 2.76348 6.82235 3.40453 7.62458 3.40453C8.42681 3.40453 9.07715 2.76348 9.07715 1.97271C9.07715 1.18194 8.42681 0.540894 7.62458 0.540894C6.82235 0.540894 6.17201 1.18194 6.17201 1.97271Z" fill="black"/>
<path d="M11.5392 1.97271C11.5392 2.76348 12.1895 3.40453 12.9918 3.40453C13.794 3.40453 14.4443 2.76348 14.4443 1.97271C14.4443 1.18194 13.794 0.540894 12.9918 0.540894C12.1895 0.540894 11.5392 1.18194 11.5392 1.97271Z" fill="black"/>
<path d="M0.804823 1.97271C0.804823 2.76348 1.45516 3.40453 2.25739 3.40453C3.05962 3.40453 3.70996 2.76348 3.70996 1.97271C3.70996 1.18194 3.05962 0.540894 2.25739 0.540894C1.45516 0.540894 0.804823 1.18194 0.804823 1.97271Z" fill="black"/>
</svg>
