<svg width="22" height="19" viewBox="0 0 22 19" fill="none" xmlns="http://www.w3.org/2000/svg">
<g opacity="0.722308">
<path fill-rule="evenodd" clip-rule="evenodd" d="M0 0V19H22V0H0ZM20.7112 1.28085V2.56188H12.0846L9.42104 4.26977H1.28884V1.28085H20.7112ZM1.28884 5.55062V17.7191H20.7112V3.84273H12.4643L9.80073 5.55062H1.28884Z" fill="black"/>
<path d="M5 2H6.5V3.5H5V2Z" fill="black"/>
<path d="M2 2H3.5V3.5H2L2 2Z" fill="black"/>
<path fill-rule="evenodd" clip-rule="evenodd" d="M5.73775 11.4656L5 10.3157L11 6L17 10.3158L16.2623 11.4657L15.3442 10.8054V16H11.5689V13.4668H10.4602V16H6.65576V10.8053L5.73775 11.4656ZM12.8625 15H14V10.2026L11 8L8 10.2026V15H9.16642V12.441H12.8625V15Z" fill="black"/>
</g>
</svg>
