<svg width="23" height="19" viewBox="0 0 23 19" fill="none" xmlns="http://www.w3.org/2000/svg">
<rect x="1" y="12" width="22" height="6" fill="#FFC66C"/>
<path d="M11.0266 16.988C11.5642 16.988 12.0001 17.4411 12.0001 18V18V18C12.0001 17.4411 12.4359 16.988 12.9735 16.988H19.9819L23 13.8504V1H12.9735C12.4359 1 12.0001 1.45309 12.0001 2.01199C12.0001 1.45309 11.5642 1 11.0266 1H1V16.9881H11.0266V16.988Z" fill="white"/>
<path d="M22 13L20 16V13H22Z" fill="#ADE5FF"/>
<path d="M20 16L22 13V16H20Z" fill="white"/>
<path d="M7.83358 5H3.16637C2.52218 5 2 5.52218 2 6.16633V10.8336C2 11.4778 2.52218 12 3.16637 12H7.83363C8.47777 12 9 11.4778 9 10.8336V6.16633C8.99995 5.52218 8.47777 5 7.83358 5Z" fill="#FF5D5D"/>
<path d="M6.84226 8.86487L5.52754 9.93077C5.29951 10.1157 5 9.90854 5 9.5659V7.4341C5 7.09146 5.29947 6.88434 5.52754 7.06923L6.84226 8.13513C7.05258 8.30562 7.05258 8.69433 6.84226 8.86487Z" fill="white"/>
<path fill-rule="evenodd" clip-rule="evenodd" d="M12.478 0H22.5508C22.7988 0 23 0.20353 23 0.454613V18.5453C23 18.7964 22.7988 19 22.5508 19H19.8105C19.5625 19 19.3613 18.7964 19.3613 18.5453C19.3613 18.2943 19.5625 18.0907 19.8105 18.0907H22.1016V16.545H12.478C12.1865 16.545 11.9493 16.7851 11.9493 17.0801L11.9492 17.0819V18.0908H15.9699C16.2179 18.0908 16.4191 18.2943 16.4191 18.5454C16.4191 18.7964 16.2179 19 15.9699 19H0.449219C0.20116 19 0 18.7964 0 18.5454V0.454613C0 0.203576 0.20116 0 0.449219 0H10.5221C10.9002 0 11.2444 0.149568 11.5 0.393286C11.7557 0.149568 12.0999 0 12.478 0ZM10.5221 0.909226H0.898438V12.6364V13.1837H3.70605C3.95411 13.1837 4.15527 13.3873 4.15527 13.6383C4.15527 13.8894 3.95411 14.093 3.70605 14.093H0.898438V15.6358H10.5221C10.7088 15.6358 10.8872 15.6724 11.0508 15.7387V1.44253C11.0498 1.14835 10.8131 0.909226 10.5221 0.909226ZM0.898438 18.0907V16.545H10.5221C10.8131 16.545 11.0498 16.7842 11.0508 17.0784V18.0907H0.898438ZM11.9492 1.44603V15.7387C12.1128 15.6725 12.2913 15.6358 12.478 15.6358H19.0695V13.0219C19.0695 12.7709 19.2707 12.5673 19.5187 12.5673H22.1016V0.90918H12.478C12.1865 0.90918 11.9493 1.14926 11.9493 1.44426L11.9492 1.44603ZM21.4662 13.4766L19.9679 14.9929V13.4766H21.4662ZM22.1016 14.1195L20.6032 15.6358V15.6359H22.1016V14.1195Z" fill="black"/>
<path d="M17.5 18C17.3685 18 17.2395 18.0535 17.1465 18.1465C17.0535 18.2395 17 18.368 17 18.5C17 18.6315 17.0535 18.7605 17.1465 18.8535C17.24 18.9465 17.3685 19 17.5 19C17.6315 19 17.7605 18.9465 17.8535 18.8535C17.947 18.7605 18 18.6315 18 18.5C18 18.3685 17.947 18.2395 17.8535 18.1465C17.761 18.0536 17.632 18 17.5 18Z" fill="black"/>
<path d="M6.5 13C6.36795 13 6.23895 13.0535 6.1465 13.1465C6.0535 13.2395 6 13.3685 6 13.5C6 13.6315 6.05345 13.7605 6.1465 13.8535C6.2395 13.9465 6.368 14 6.5 14C6.6315 14 6.7605 13.9465 6.85345 13.8535C6.94645 13.7605 7 13.6315 7 13.5C7 13.3685 6.9465 13.2395 6.85345 13.1465C6.7605 13.0535 6.6315 13 6.5 13Z" fill="black"/>
<path fill-rule="evenodd" clip-rule="evenodd" d="M8.54908 12H4.45092C3.65087 12 3 11.3491 3 10.5491V6.45096C3 5.65091 3.65087 5 4.45092 5H8.54908C9.34913 5 10 5.65091 10 6.45096V10.5491C10 11.3491 9.34913 12 8.54908 12ZM4.45092 5.8537C4.12158 5.8537 3.85366 6.12162 3.85366 6.45101V10.5491C3.85366 10.8785 4.12158 11.1464 4.45092 11.1464H8.54908C8.87842 11.1464 9.14634 10.8785 9.14634 10.5491V6.45101C9.14634 6.12162 8.87842 5.8537 8.54908 5.8537H4.45092Z" fill="black"/>
<path fill-rule="evenodd" clip-rule="evenodd" d="M4.7663 10C4.64004 10 4.51351 9.96348 4.39866 9.88989C4.15274 9.73232 4.00004 9.43046 4 9.10206V6.89795C4 6.56955 4.15278 6.26769 4.39866 6.11017C4.64457 5.95256 4.94392 5.96484 5.17985 6.14201L6.64722 7.24407C6.86806 7.40996 7 7.69257 7 8.00001C7 8.30744 6.8681 8.5901 6.64718 8.75599L5.17985 9.858C5.05413 9.95241 4.91036 10 4.7663 10ZM6.2309 8.0001L4.76791 6.90119L4.76779 9.09882L6.2309 8.0001Z" fill="black"/>
<path d="M17.4728 14H12.5272C12.2361 14 12 14.2239 12 14.5C12 14.7761 12.2361 15 12.5272 15H17.4728C17.7639 15 18 14.7761 18 14.5C18 14.2239 17.7639 14 17.4728 14Z" fill="black"/>
<path d="M18.542 9H13.458C13.2051 9 13 9.2239 13 9.5C13 9.7761 13.2051 10 13.458 10H18.542C18.7949 10 19 9.7761 19 9.5C19 9.2239 18.7949 9 18.542 9Z" fill="black"/>
<path d="M20.5 9C20.3685 9 20.2395 9.05345 20.1465 9.1465C20.0535 9.23945 20 9.36845 20 9.5C20 9.6315 20.0535 9.7605 20.1465 9.85345C20.2395 9.94645 20.3685 10 20.5 10C20.6315 10 20.7605 9.9465 20.8535 9.85345C20.9465 9.7605 21 9.6315 21 9.5C21 9.36845 20.9465 9.23945 20.8535 9.1465C20.7605 9.05345 20.6315 9 20.5 9Z" fill="black"/>
<path d="M17.4728 11H12.5272C12.2361 11 12 11.2239 12 11.5C12 11.7761 12.2361 12 12.5272 12H17.4728C17.7639 12 18 11.7761 18 11.5C18 11.2239 17.7639 11 17.4728 11Z" fill="black"/>
<path d="M17.4768 5H20.5232C20.7865 5 21 4.7761 21 4.5C21 4.2239 20.7865 4 20.5232 4H17.4768C17.2135 4 17 4.2239 17 4.5C17 4.7761 17.2135 5 17.4768 5Z" fill="black"/>
<path d="M17.4768 7H20.5232C20.7865 7 21 6.7761 21 6.5C21 6.2239 20.7865 6 20.5232 6H17.4768C17.2135 6 17 6.2239 17 6.5C17 6.7761 17.2135 7 17.4768 7Z" fill="black"/>
<path d="M13.3204 7H14.6796C14.8565 7 15 6.7761 15 6.5C15 6.2239 14.8565 6 14.6796 6H13.6408V5H14.6796C14.8565 5 15 4.7761 15 4.5C15 4.2239 14.8565 4 14.6796 4H13.6408V3H14.6796C14.8565 3 15 2.7761 15 2.5C15 2.2239 14.8565 2 14.6796 2H13.3204C13.1435 2 13 2.2239 13 2.5V6.5C13 6.7761 13.1434 7 13.3204 7Z" fill="black"/>
</svg>
