<svg width="17" height="20" viewBox="0 0 17 20" fill="none" xmlns="http://www.w3.org/2000/svg">
<path fill-rule="evenodd" clip-rule="evenodd" d="M16.0217 14.2553C16.4574 14.1758 16.8768 14.4552 16.9584 14.8793C17.0909 15.5674 16.9035 16.271 16.4442 16.8095C15.9854 17.3477 15.3102 17.6562 14.5918 17.6562H10.9156C10.9156 18.9486 9.83545 20 8.50774 20C7.18002 20 6.09984 18.9486 6.09984 17.6562H2.40818C1.68983 17.6562 1.01461 17.3477 0.555788 16.8095C0.0965226 16.2709 -0.0908917 15.5674 0.0415825 14.8793C0.319097 13.438 0.86779 12.5038 1.35189 11.6795L1.35208 11.6791L1.3521 11.6791C1.84354 10.8424 2.23172 10.1815 2.23172 9.14062V7.96875C2.23172 4.88988 4.62124 2.31285 7.68961 1.92535V0.78125C7.68961 0.349766 8.04895 0 8.49224 0C8.93554 0 9.29488 0.349766 9.29488 0.78125V1.92305C10.677 2.09273 11.9554 2.70754 12.9511 3.69273C14.113 4.8423 14.7528 6.3609 14.7528 7.96875V9.14062C14.7528 9.93285 14.9776 10.4923 15.366 11.1908C15.577 11.5702 15.4321 12.0443 15.0422 12.2497C14.9208 12.3137 14.7899 12.344 14.6609 12.344C14.3757 12.344 14.0996 12.1957 13.9543 11.9345C13.564 11.2325 13.1475 10.3798 13.1475 9.14062V7.96875C13.1475 5.50508 11.0971 3.47363 8.5758 3.43797H8.42406C5.89421 3.47371 3.83694 5.50516 3.83694 7.96871V9.14059C3.83694 10.5966 3.28217 11.5412 2.74565 12.4546L2.74558 12.4547C2.30384 13.2069 1.84705 13.9846 1.61939 15.1671C1.5588 15.4817 1.7009 15.7059 1.79096 15.8116C1.88081 15.917 2.08051 16.0938 2.40818 16.0938H14.5918C14.9195 16.0938 15.1192 15.917 15.209 15.8116C15.2991 15.7059 15.4412 15.4817 15.3806 15.1671C15.299 14.743 15.586 14.3348 16.0217 14.2553ZM7.7051 17.6562C7.7051 18.087 8.06516 18.4375 8.50774 18.4375C8.95035 18.4375 9.31037 18.087 9.31037 17.6562H7.7051Z" fill="black"/>
</svg>
